<svg version="1.1" id="Calque_1" xmlns="http://www.w3.org/2000/svg" x="0" y="0" viewBox="0 0 1417.3 1417.3" style="enable-background:new 0 0 1417.3 1417.3" xml:space="preserve"><radialGradient id="SVGID_1_" cx="700.141" cy="705.01" r="628.569" gradientTransform="matrix(1 0 0 -1 0 1417.32)" gradientUnits="userSpaceOnUse"><stop offset="0" style="stop-color:#0d0d0d"/><stop offset=".075" style="stop-color:#090909"/><stop offset=".32" style="stop-color:#020202"/><stop offset="1" style="stop-color:#000"/></radialGradient><path d="M221.8 1417.3c19.1-132.8 45.7-263.2 78.7-391.9 3.2-11.9 1.2-19.5-7.2-29C189.6 880.3 149 743.5 160.6 589.3c17.9-242.5 205.9-415 369.7-464.3 35-10.3 71.6-15.9 107.7-22.3 8.7-1.6 13.9-4.4 18.3-12.3 13.5-27 28.2-53.7 43.7-83.1 15.5 28.2 30.2 53.7 43.7 79.9 5.6 10.3 11.9 14.3 23.9 15.9 122.8 13.1 225.4 67.6 313.6 152.6 213.9 205.9 213.1 561.3 2.4 766-4 3.6-5.6 12.3-4.8 17.9 12.7 80.3 25.8 160.6 39 240.9.4 3.6 0 7.6 0 11.9-35.8-69.2-71.2-137.9-106.9-207.5-5.6 3.2-8.3 4.4-11.1 6.4-111.7 75.1-235.3 99.8-367.7 85.5-56.4-6-110.1-20.7-161-45.3-9.5-4.4-13.5-.8-18.3 5.6-73.1 88.2-146.3 176.9-219.4 265.1-4.1 4.8-8 9.9-11.6 15.1zM768.4 132.9C838.8 270 898.8 410 948.9 553.9c50.1 143.9 89.8 291 121.2 441.6 142.7-139.9 179.3-358.6 110.5-541-60-158.2-225-306.5-412.2-321.6zm-134.8-.4c-190 15.9-364.1 175.7-418.2 346.6-27 85.1-31 171.3-15.5 259.2 15.9 88.2 53.7 165.8 113.7 235.7 78.3-292.9 184.9-571.6 320-841.5zm-151 971.6c134.8 71.2 364.1 71.9 510.8-42.9-29.8-43.7-60.8-86.3-104.1-117.7-18.7-13.9-40.5-26.2-62.8-31.8-44.1-11.1-86.7 0-126.8 19.9-53.3 25.8-99 62.4-142.3 102.2-25.6 21.8-49.8 46-74.8 70.3z" style="fill:url(#SVGID_1_)"/></svg>