<?xml version="1.0" encoding="UTF-8" standalone="no"?>
<!-- Created with Inkscape (http://www.inkscape.org/) -->

<svg version="1.1" id="svg1" width="228.2186" height="160.8374" viewBox="0 0 228.2186 160.8374" xmlns="http://www.w3.org/2000/svg" xmlns:svg="http://www.w3.org/2000/svg">
  <defs id="defs1"></defs>
  <g id="g1" transform="translate(-290.45734,-206.81862)">
    <path id="path31" style="fill: #000; fill-opacity: 1; fill-rule: evenodd; stroke: none" transform="matrix(0.13333333,0,0,-0.13333333,0,1056)" d="m 3408.88,5384.73 v 0 l 35.12,83.61 h 61.57 c 7.19,0 8.24,-9.33 6.27,-14.06 l -9.93,-23.62 c -1.66,-3.99 -6.92,-7.54 -9.79,-8.55 2.61,-1.38 4.18,-4.91 2.96,-7.73 l -12.47,-29.65 h -28.07 l 12.01,28.61 c 0.61,1.47 -0.16,4.26 -2.28,4.26 h -13.5 l -13.8,-32.87 z m -244.12,0.02 v 0 l 35.1,83.59 h 63.3 l -8.56,-20.39 h -35.22 l -5.24,-12.47 h 35.22 l -7.52,-17.88 h -35.21 l -5.24,-12.45 h 35.24 l -8.57,-20.4 z m -85.33,10.96 v 0 l 27.41,65.21 c 1.59,3.79 5.7,7.45 9.8,7.45 h 56.22 c 6.34,0 8.13,-5.68 6.67,-9.16 l -4.74,-11.24 h -42.11 c -1.64,0 -3.62,-0.97 -4.23,-2.48 l -16.06,-38.21 c -0.35,-0.82 0.68,-2.1 1.55,-2.1 h 11.97 c 2.02,0 3.97,1.88 4.73,3.74 l 3.66,8.7 h -9.62 l 7.52,17.9 h 37.71 l -16.37,-38.96 c -2.21,-5.23 -6.71,-11.79 -12.4,-11.79 h -52.94 c -8.59,0 -10.56,6.64 -8.77,10.94 z m 252.73,-10.91 v 0 l 35.11,83.59 h 63.3 l -8.57,-20.4 h -35.21 l -5.24,-12.45 h 35.21 l -7.51,-17.88 h -35.21 l -5.24,-12.46 h 35.24 l -8.58,-20.4 z m 369.89,10.95 v 0 l 27.4,65.21 c 1.57,3.79 5.71,7.45 9.81,7.45 h 47.27 c 11.37,0 14.76,-11.92 11.92,-18.73 l -22.31,-53.07 c -2.19,-5.26 -6.68,-11.79 -12.38,-11.79 h -52.96 c -8.57,0 -10.57,6.64 -8.75,10.93 z m -459,-10.91 v 0 l 35.1,83.59 h 61.57 c 7.19,0 8.24,-9.33 6.27,-14.06 l -29.21,-69.53 h -28.09 l 24.48,58.29 c 0.65,1.55 0.35,4.9 -1.34,4.9 h -14.18 l -26.53,-63.19 z m 416.72,0 v 0 l 35.1,83.59 h 28.09 l -35.12,-83.59 z m 126.47,0.02 v 0 l 35.11,83.59 h 61.57 c 7.18,0 8.26,-9.33 6.26,-14.06 l -29.2,-69.53 h -28.09 l 24.49,58.29 c 0.64,1.55 0.33,4.9 -1.36,4.9 h -14.15 l -26.56,-63.19 z m -184.83,0 v 0 l 26.56,63.19 h -24.93 l 8.56,20.4 h 71.24 l -8.57,-20.4 h -18.23 l -26.53,-63.19 z m -108.68,0.07 v 0 l 40.47,53.97 h 29.61 l -25.25,-33.57 h 24.48 l 4.87,38.01 c 0.23,2.04 -1.89,4.78 -3.95,4.78 h -40.16 l 8.56,20.4 h 57.98 c 4.89,0 8.2,-5.13 7.7,-9.05 l -9.52,-74.54 z m 260.51,24.03 v 0 l 14.35,34.17 c 0.66,1.55 0.36,4.88 -1.36,4.88 h -10.95 c -1.62,0 -3.59,-0.96 -4.23,-2.47 l -16.06,-38.22 c -0.33,-0.81 0.7,-2.1 1.58,-2.1 h 11.96 c 2,0 3.95,1.89 4.71,3.74 z m -277.4,26.52 3.18,7.56 c 0.65,1.55 0.35,4.89 -1.36,4.89 h -14.16 l -5.23,-12.45 h 17.57 m 132.49,63.8 v 0 l 8.56,20.4 h 3.71 c 9.11,0 20.57,14.5 36.42,30.32 l -11.47,33.2 h 29.08 l 4.36,-13.96 c 1.51,5.15 14.24,13.96 22.09,13.96 h 22.31 l -8.59,-20.4 h -6.62 c -9.11,0 -14.13,-10.34 -21.5,-18.1 l 15.85,-45.09 h -28.1 l -9.07,26.27 c -6.66,-7.54 -21.75,-26.6 -30.93,-26.6 z m -161.65,0.33 v 0 l 35.11,83.59 h 61.57 c 7.19,0 8.24,-9.34 6.27,-14.05 l -29.21,-69.54 h -28.09 l 24.49,58.3 c 0.64,1.56 0.33,4.89 -1.36,4.89 h -14.15 l -26.56,-63.19 z m 90.09,0 v 0 l 35.12,83.59 h 63.3 l -8.56,-20.4 h -35.24 l -5.24,-12.47 h 35.24 l -7.52,-17.88 h -35.21 l -5.24,-12.45 h 35.21 l -8.56,-20.39 z m 183.09,0 v 0 l 26.53,63.19 h -24.93 l 8.59,20.4 h 71.23 l -8.57,-20.4 h -18.23 l -26.53,-63.19 h -28.09 m -402.54,-0.33 v 0 l 0.13,0.33 h -8.22 l 35.13,83.59 h 28.06 l -0.13,-0.33 h 33.68 l -8.56,-20.4 h -33.69 l -5.23,-12.47 h 33.68 l -7.52,-17.87 h -33.68 l -5.24,-12.45 h 33.68 l -8.56,-20.4 z m -149.71,0.33 v 0 l 26.56,63.19 h -24.94 l 8.57,20.4 h 71.24 l -8.57,-20.4 h -18.23 l -26.53,-63.19 z m 54.68,0 v 0 l 35.12,83.59 h 28.09 l -13.3,-31.62 h 15.18 l 13.28,31.62 h 28.09 l -35.12,-83.59 h -28.07 l 12.51,29.8 h -15.18 l -12.51,-29.8 h -28.09 m -103.39,141.21 v 0 l 58.18,144.49 h 59.84 l -58.17,-144.49 z M 3733.22,5821 h -92.86 l 20.99,50.42 h 62.95 l -3.02,-14.35 c 13.08,5.17 21.28,14.35 39.25,14.35 h 89.46 L 3801.61,5821 Z m -489.92,0 v 0 h -92.86 l 20.99,50.42 h 48.58 92.86 L 3291.88,5821 Z m 324.18,-180.18 v 0 l 58.18,144.49 h 25.55 l 0.02,0.02 h 64.36 c 14.24,0 25.65,-15.08 32.78,-27.41 l 62.55,-117.1 h -67.83 l -37.32,78.29 c -4.25,7.87 -10.5,18.5 -19.44,18.5 h -20.05 l -38.98,-96.79 z m -152,0 v 0 l 93.56,230.6 h 133.21 l -20.3,-50.42 h -41.04 -0.02 -33.04 l -13.65,-33.87 h 74.1 l -20.29,-50.43 h -46.95 -27.15 l -18.3,-45.44 h 74.11 l -13.06,-32.47 -7.49,-17.97 h -48.56 l -0.02,0.02 h -25.27 v -0.02 z m -184.59,0 v 0 l 58.18,144.49 h 25.57 l 0.02,0.02 h 75.86 l 7.89,19.92 c 4.71,10.54 1.86,15.69 -4.56,15.75 h -12.22 -78.03 l 20.99,50.42 h 75.23 63.59 c 10.66,0 22.36,-11.46 8.71,-38.21 l -22.9,-53.69 h -0.19 l -11.46,-28.46 c -4.98,-10.93 -14.36,-11.15 -21.63,-14.24 4.62,-7.94 8.46,-16.33 4.69,-27.81 l -27.46,-68.19 h -59.84 l 30.99,78.29 c 2.14,10.91 -3.49,18.5 -9.67,18.5 h -24.94 l -38.97,-96.79 h -59.85 m 87.83,275.29 v 0 l 58.18,144.49 h 59.84 l -58.18,-144.49 z m 124.39,180.18 v 0 h -92.88 l 21.02,50.42 h 48.57 92.86 l -20.98,-50.42 z m -328.12,-180.16 v 0 l 25.74,49.17 h 93.7 c 19.08,0 38.43,21.41 38.43,36.73 0,11.43 -9.14,16.43 -22.37,20.09 -14.55,4.01 -42.38,10.76 -42.38,43.65 0,41.17 32.63,80.94 51.39,80.94 h 102.34 l -20.98,-50.42 h -48.59 c -10.62,0 -21.05,-11.5 -19.5,-20.25 0,-9.79 8.9,-15.05 26.32,-17.2 10.56,-1.27 22.3,-5.47 29.67,-13.45 7.49,-8.13 11.17,-20.18 11.17,-31.23 v -7.8 c 0,-47.72 -43.63,-90.23 -84.14,-90.23 z m 491.52,-0.02 v 0 l 58.18,144.49 h 25.57 l 0.02,0.02 h 75.86 l 7.89,19.92 c 4.71,10.53 1.86,15.69 -4.56,15.75 h -12.23 -78.03 l 21,50.42 h 75.22 63.59 c 10.67,0 22.35,-11.46 8.72,-38.21 l -22.9,-53.69 h -0.2 l -11.46,-28.46 c -4.97,-10.94 -14.35,-11.15 -21.64,-14.24 4.64,-7.93 8.48,-16.33 4.71,-27.81 l -27.46,-68.19 h -59.84 l 30.98,78.29 c 2.15,10.91 -3.48,18.49 -9.66,18.49 h -24.96 l -38.95,-96.78 z m -218.88,0 v 0 l 121.07,144.49 h 57.89 l -65.61,-90.39 h 43.11 l 36.46,110.33 c 3.26,10.6 -0.37,15.75 -6.91,15.75 H 3503 l 21.02,50.42 h 48.57 63.59 c 10.67,0 23.97,-11.46 14.13,-38.21 l -53.04,-192.39 h -209.64 m -1209.2,-662.53 v -2.7 c 98.68,-4.56 218.46,-37.92 306.35,-72.12 -1.03,23.22 -0.87,18.1 -12,30.95 151.7,-4.49 138.27,-110.39 268.44,10.76 92.27,85.87 95.97,147.78 90.98,296.47 -70.25,-93.34 -4.75,-199.88 -177.62,-205.1 11.58,15.91 8.32,11.41 30.03,22.85 11.55,6.09 23.62,12.57 33.28,17.27 -54.57,34.68 -184.04,-4.49 -204.36,91.7 -6.22,29.44 0.56,61.36 14.5,79.61 5.6,-25.41 0.56,-45.39 12.99,-65.41 35.39,-15.42 137.2,-8.08 168.29,13.6 -37.76,19.72 -103.09,4.88 -136.44,38.33 l 147.41,7.55 c -51.21,26.5 -135.69,11.96 -190.32,38.2 8.88,14.03 18.12,18.02 31.69,27.44 -3.69,31.02 -2.43,51.1 3.75,77.14 l 14.01,-9.14 c 1.22,-0.85 2.92,-2.04 4.23,-2.98 2.85,-2.04 18.09,-14.73 18.16,-14.81 11.96,-14.58 8.5,-25.44 4.09,-39.64 36.91,-4.59 62.51,23.9 88.65,37.28 -1.49,0.81 -4.05,3.05 -4.82,1.65 l -22.23,10.08 c -43.91,31.08 -36.25,46.26 -34.15,66.7 4.92,48.04 11.33,106.03 11.32,152.79 -36.21,13.26 -71.84,30.34 -112.12,46.25 -54.16,21.39 -67.39,32.39 -64.05,101.5 69.93,-11.91 137.12,-34.93 205.29,-49.62 68.41,-14.73 154.64,21.73 214.25,24.34 l 19.66,-235.11 c 1.56,1.48 2.94,5.6 3.35,4.63 l 8.59,19.39 c 12.89,43.8 18.72,168.26 34.86,201.72 v 59.09 c -8.47,15.23 -27.31,93.78 -37.41,118.76 -27.59,68.26 -81.57,134.36 -146.6,171.51 -115.88,66.2 -257.24,55.65 -368.49,-14.08 -88.97,-55.77 -154.89,-137.51 -164.54,-248.35 -7.5,-86.18 14.82,-109.14 29,-175.56 l -41.74,40.61 c -6.09,-44.58 8.89,-128.88 20.3,-172.79 25.35,-97.61 49.38,-85.93 84.95,-111.13 3.31,-44.1 6.29,-87.14 10.64,-131.33 14.04,-142.72 28.29,-67.15 -162.17,-258.3 z m 539.91,586.83 c 2.26,-1.83 -5.44,-10.43 18.26,-8.81 0.16,0.01 23.79,10.83 27.06,12.11 32.14,-16.22 6.62,-21.31 48.13,-14.53 26.92,4.41 31.02,-6.38 55.98,-16.65 -3.73,42.97 -8.77,36.68 -47.41,47.34 28.95,24.18 39.87,7.02 45.35,46.51 -48.26,-25.24 -130.59,-18.05 -147.37,-65.97"></path>
  </g>
</svg>
