<svg version="1.1" id="svg1" width="228.219" height="160.837" xmlns="http://www.w3.org/2000/svg"><g id="g1" transform="translate(-290.457 -206.819)"><path id="path31" style="fill:#000;fill-opacity:1;fill-rule:evenodd;stroke:none" transform="matrix(.13333 0 0 -.13333 0 1056)" d="m3408.88 5384.73 35.12 83.61h61.57c7.19 0 8.24-9.33 6.27-14.06l-9.93-23.62c-1.66-3.99-6.92-7.54-9.79-8.55 2.61-1.38 4.18-4.91 2.96-7.73l-12.47-29.65h-28.07l12.01 28.61c.61 1.47-.16 4.26-2.28 4.26h-13.5l-13.8-32.87zm-244.12.02 35.1 83.59h63.3l-8.56-20.39h-35.22l-5.24-12.47h35.22l-7.52-17.88h-35.21l-5.24-12.45h35.24l-8.57-20.4zm-85.33 10.96 27.41 65.21c1.59 3.79 5.7 7.45 9.8 7.45h56.22c6.34 0 8.13-5.68 6.67-9.16l-4.74-11.24h-42.11c-1.64 0-3.62-.97-4.23-2.48l-16.06-38.21c-.35-.82.68-2.1 1.55-2.1h11.97c2.02 0 3.97 1.88 4.73 3.74l3.66 8.7h-9.62l7.52 17.9h37.71l-16.37-38.96c-2.21-5.23-6.71-11.79-12.4-11.79h-52.94c-8.59 0-10.56 6.64-8.77 10.94zm252.73-10.91 35.11 83.59h63.3l-8.57-20.4h-35.21l-5.24-12.45h35.21l-7.51-17.88h-35.21l-5.24-12.46h35.24l-8.58-20.4zm369.89 10.95 27.4 65.21c1.57 3.79 5.71 7.45 9.81 7.45h47.27c11.37 0 14.76-11.92 11.92-18.73l-22.31-53.07c-2.19-5.26-6.68-11.79-12.38-11.79h-52.96c-8.57 0-10.57 6.64-8.75 10.93zm-459-10.91 35.1 83.59h61.57c7.19 0 8.24-9.33 6.27-14.06l-29.21-69.53h-28.09l24.48 58.29c.65 1.55.35 4.9-1.34 4.9h-14.18l-26.53-63.19zm416.72 0 35.1 83.59h28.09l-35.12-83.59zm126.47.02 35.11 83.59h61.57c7.18 0 8.26-9.33 6.26-14.06l-29.2-69.53h-28.09l24.49 58.29c.64 1.55.33 4.9-1.36 4.9h-14.15l-26.56-63.19zm-184.83 0 26.56 63.19h-24.93l8.56 20.4h71.24l-8.57-20.4h-18.23l-26.53-63.19zm-108.68.07 40.47 53.97h29.61l-25.25-33.57h24.48l4.87 38.01c.23 2.04-1.89 4.78-3.95 4.78h-40.16l8.56 20.4h57.98c4.89 0 8.2-5.13 7.7-9.05l-9.52-74.54zm260.51 24.03 14.35 34.17c.66 1.55.36 4.88-1.36 4.88h-10.95c-1.62 0-3.59-.96-4.23-2.47l-16.06-38.22c-.33-.81.7-2.1 1.58-2.1h11.96c2 0 3.95 1.89 4.71 3.74zm-277.4 26.52 3.18 7.56c.65 1.55.35 4.89-1.36 4.89h-14.16l-5.23-12.45h17.57m132.49 63.8 8.56 20.4h3.71c9.11 0 20.57 14.5 36.42 30.32l-11.47 33.2h29.08l4.36-13.96c1.51 5.15 14.24 13.96 22.09 13.96h22.31l-8.59-20.4h-6.62c-9.11 0-14.13-10.34-21.5-18.1l15.85-45.09h-28.1l-9.07 26.27c-6.66-7.54-21.75-26.6-30.93-26.6zm-161.65.33 35.11 83.59h61.57c7.19 0 8.24-9.34 6.27-14.05l-29.21-69.54h-28.09l24.49 58.3c.64 1.56.33 4.89-1.36 4.89h-14.15l-26.56-63.19zm90.09 0 35.12 83.59h63.3l-8.56-20.4h-35.24l-5.24-12.47h35.24l-7.52-17.88h-35.21l-5.24-12.45h35.21l-8.56-20.39zm183.09 0 26.53 63.19h-24.93l8.59 20.4h71.23l-8.57-20.4h-18.23l-26.53-63.19h-28.09m-402.54-.33.13.33h-8.22l35.13 83.59h28.06l-.13-.33h33.68l-8.56-20.4h-33.69l-5.23-12.47h33.68l-7.52-17.87h-33.68l-5.24-12.45h33.68l-8.56-20.4zm-149.71.33 26.56 63.19h-24.94l8.57 20.4h71.24l-8.57-20.4h-18.23l-26.53-63.19zm54.68 0 35.12 83.59h28.09l-13.3-31.62h15.18l13.28 31.62h28.09l-35.12-83.59h-28.07l12.51 29.8h-15.18l-12.51-29.8h-28.09m-103.39 141.21 58.18 144.49h59.84l-58.17-144.49zM3733.22 5821h-92.86l20.99 50.42h62.95l-3.02-14.35c13.08 5.17 21.28 14.35 39.25 14.35h89.46l-48.38-50.42Zm-489.92 0h-92.86l20.99 50.42h141.44l-20.99-50.42Zm324.18-180.18 58.18 144.49h25.55l.02.02h64.36c14.24 0 25.65-15.08 32.78-27.41l62.55-117.1h-67.83l-37.32 78.29c-4.25 7.87-10.5 18.5-19.44 18.5h-20.05l-38.98-96.79zm-152 0 93.56 230.6h133.21l-20.3-50.42h-74.1l-13.65-33.87h74.1l-20.29-50.43h-74.1l-18.3-45.44h74.11l-13.06-32.47-7.49-17.97h-48.56l-.02.02h-25.27v-.02zm-184.59 0 58.18 144.49h25.57l.02.02h75.86l7.89 19.92c4.71 10.54 1.86 15.69-4.56 15.75h-90.25l20.99 50.42h138.82c10.66 0 22.36-11.46 8.71-38.21l-22.9-53.69h-.19l-11.46-28.46c-4.98-10.93-14.36-11.15-21.63-14.24 4.62-7.94 8.46-16.33 4.69-27.81l-27.46-68.19h-59.84l30.99 78.29c2.14 10.91-3.49 18.5-9.67 18.5h-24.94l-38.97-96.79h-59.85m87.83 275.29 58.18 144.49h59.84l-58.18-144.49zm124.39 180.18h-92.88l21.02 50.42h141.43l-20.98-50.42zm-328.12-180.16 25.74 49.17h93.7c19.08 0 38.43 21.41 38.43 36.73 0 11.43-9.14 16.43-22.37 20.09-14.55 4.01-42.38 10.76-42.38 43.65 0 41.17 32.63 80.94 51.39 80.94h102.34l-20.98-50.42h-48.59c-10.62 0-21.05-11.5-19.5-20.25 0-9.79 8.9-15.05 26.32-17.2 10.56-1.27 22.3-5.47 29.67-13.45 7.49-8.13 11.17-20.18 11.17-31.23v-7.8c0-47.72-43.63-90.23-84.14-90.23zm491.52-.02 58.18 144.49h25.57l.02.02h75.86l7.89 19.92c4.71 10.53 1.86 15.69-4.56 15.75h-90.26l21 50.42h138.81c10.67 0 22.35-11.46 8.72-38.21l-22.9-53.69h-.2l-11.46-28.46c-4.97-10.94-14.35-11.15-21.64-14.24 4.64-7.93 8.48-16.33 4.71-27.81l-27.46-68.19h-59.84l30.98 78.29c2.15 10.91-3.48 18.49-9.66 18.49h-24.96l-38.95-96.78zm-218.88 0 121.07 144.49h57.89l-65.61-90.39h43.11l36.46 110.33c3.26 10.6-.37 15.75-6.91 15.75H3503l21.02 50.42h112.16c10.67 0 23.97-11.46 14.13-38.21l-53.04-192.39h-209.64m-1209.2-662.53v-2.7c98.68-4.56 218.46-37.92 306.35-72.12-1.03 23.22-.87 18.1-12 30.95 151.7-4.49 138.27-110.39 268.44 10.76 92.27 85.87 95.97 147.78 90.98 296.47-70.25-93.34-4.75-199.88-177.62-205.1 11.58 15.91 8.32 11.41 30.03 22.85 11.55 6.09 23.62 12.57 33.28 17.27-54.57 34.68-184.04-4.49-204.36 91.7-6.22 29.44.56 61.36 14.5 79.61 5.6-25.41.56-45.39 12.99-65.41 35.39-15.42 137.2-8.08 168.29 13.6-37.76 19.72-103.09 4.88-136.44 38.33l147.41 7.55c-51.21 26.5-135.69 11.96-190.32 38.2 8.88 14.03 18.12 18.02 31.69 27.44-3.69 31.02-2.43 51.1 3.75 77.14l14.01-9.14c1.22-.85 2.92-2.04 4.23-2.98 2.85-2.04 18.09-14.73 18.16-14.81 11.96-14.58 8.5-25.44 4.09-39.64 36.91-4.59 62.51 23.9 88.65 37.28-1.49.81-4.05 3.05-4.82 1.65l-22.23 10.08c-43.91 31.08-36.25 46.26-34.15 66.7 4.92 48.04 11.33 106.03 11.32 152.79-36.21 13.26-71.84 30.34-112.12 46.25-54.16 21.39-67.39 32.39-64.05 101.5 69.93-11.91 137.12-34.93 205.29-49.62 68.41-14.73 154.64 21.73 214.25 24.34l19.66-235.11c1.56 1.48 2.94 5.6 3.35 4.63l8.59 19.39c12.89 43.8 18.72 168.26 34.86 201.72v59.09c-8.47 15.23-27.31 93.78-37.41 118.76-27.59 68.26-81.57 134.36-146.6 171.51-115.88 66.2-257.24 55.65-368.49-14.08-88.97-55.77-154.89-137.51-164.54-248.35-7.5-86.18 14.82-109.14 29-175.56l-41.74 40.61c-6.09-44.58 8.89-128.88 20.3-172.79 25.35-97.61 49.38-85.93 84.95-111.13 3.31-44.1 6.29-87.14 10.64-131.33 14.04-142.72 28.29-67.15-162.17-258.3zm539.91 586.83c2.26-1.83-5.44-10.43 18.26-8.81.16.01 23.79 10.83 27.06 12.11 32.14-16.22 6.62-21.31 48.13-14.53 26.92 4.41 31.02-6.38 55.98-16.65-3.73 42.97-8.77 36.68-47.41 47.34 28.95 24.18 39.87 7.02 45.35 46.51-48.26-25.24-130.59-18.05-147.37-65.97"/></g></svg>